<?xml version="1.0"?>
<svg xmlns="http://www.w3.org/2000/svg" xmlns:xlink="http://www.w3.org/1999/xlink" xmlns:svgjs="http://svgjs.com/svgjs" version="1.1" width="512" height="512" x="0" y="0" viewBox="0 0 965.199 965.199" style="enable-background:new 0 0 512 512" xml:space="preserve"><g>
<g xmlns="http://www.w3.org/2000/svg">
	<path d="M263.85,30c0-16.6-13.4-30-30-30h-202c-16.6,0-30,13.4-30,30v202.1c0,16.6,13.4,30,30,30h202.1c16.6,0,30-13.4,30-30V30   H263.85z" fill="#9f9f9f" data-original="#000000" style=""/>
	<path d="M613.55,30c0-16.6-13.4-30-30-30h-202c-16.6,0-30,13.4-30,30v202.1c0,16.6,13.4,30,30,30h202c16.6,0,30-13.4,30-30V30z" fill="#9f9f9f" data-original="#000000" style=""/>
	<path d="M963.25,30c0-16.6-13.4-30-30-30h-202c-16.601,0-30,13.4-30,30v202.1c0,16.6,13.399,30,30,30h202.1c16.601,0,30-13.4,30-30   V30H963.25z" fill="#9f9f9f" data-original="#000000" style=""/>
	<path d="M263.85,381.6c0-16.6-13.4-30-30-30h-202c-16.6,0-30,13.4-30,30v202c0,16.6,13.4,30,30,30h202.1c16.6,0,30-13.4,30-30v-202   H263.85z" fill="#9f9f9f" data-original="#000000" style=""/>
	<path d="M613.55,381.6c0-16.6-13.4-30-30-30h-202c-16.6,0-30,13.4-30,30v202c0,16.6,13.4,30,30,30h202c16.6,0,30-13.4,30-30V381.6z   " fill="#9f9f9f" data-original="#000000" style=""/>
	<path d="M963.25,381.6c0-16.6-13.4-30-30-30h-202c-16.601,0-30,13.4-30,30v202c0,16.6,13.399,30,30,30h202.1   c16.601,0,30-13.4,30-30v-202H963.25z" fill="#9f9f9f" data-original="#000000" style=""/>
	<path d="M233.85,703.1h-202c-16.6,0-30,13.4-30,30v202.1c0,16.602,13.4,30,30,30h202.1c16.6,0,30-13.398,30-30V733.1   C263.85,716.6,250.45,703.1,233.85,703.1z" fill="#9f9f9f" data-original="#000000" style=""/>
	<path d="M583.55,703.1h-202c-16.6,0-30,13.4-30,30v202.1c0,16.602,13.4,30,30,30h202c16.6,0,30-13.398,30-30V733.1   C613.55,716.6,600.149,703.1,583.55,703.1z" fill="#9f9f9f" data-original="#000000" style=""/>
	<path d="M933.25,703.1h-202c-16.601,0-30,13.4-30,30v202.1c0,16.602,13.399,30,30,30h202.1c16.601,0,30-13.398,30-30V733.1   C963.25,716.6,949.85,703.1,933.25,703.1z" fill="#9f9f9f" data-original="#000000" style=""/>
</g>
<g xmlns="http://www.w3.org/2000/svg">
</g>
<g xmlns="http://www.w3.org/2000/svg">
</g>
<g xmlns="http://www.w3.org/2000/svg">
</g>
<g xmlns="http://www.w3.org/2000/svg">
</g>
<g xmlns="http://www.w3.org/2000/svg">
</g>
<g xmlns="http://www.w3.org/2000/svg">
</g>
<g xmlns="http://www.w3.org/2000/svg">
</g>
<g xmlns="http://www.w3.org/2000/svg">
</g>
<g xmlns="http://www.w3.org/2000/svg">
</g>
<g xmlns="http://www.w3.org/2000/svg">
</g>
<g xmlns="http://www.w3.org/2000/svg">
</g>
<g xmlns="http://www.w3.org/2000/svg">
</g>
<g xmlns="http://www.w3.org/2000/svg">
</g>
<g xmlns="http://www.w3.org/2000/svg">
</g>
<g xmlns="http://www.w3.org/2000/svg">
</g>
</g></svg>
